<svg width="390" height="552" viewBox="0 0 390 552" fill="none" xmlns="http://www.w3.org/2000/svg">
<g clip-path="url(#clip0_43_21)">
<path d="M156.63 220.963C156.63 223.187 156.558 225.392 156.414 227.579C155.606 240.192 152.42 252.539 147.023 263.967C146.982 264.065 146.933 264.156 146.891 264.246C146.64 264.776 146.382 265.306 146.117 265.829C144.512 269.061 142.732 272.203 140.784 275.241C131.886 289.187 119.69 300.727 105.275 308.84C90.859 316.954 74.667 321.391 58.1295 321.76L59.1265 379.099L72.1283 372.252L74.4499 376.666L59.2242 384.684L61.0855 491.177L61.1063 492.599L51.0534 494.838L51.0742 493.408L54.2393 321.767C40.9282 321.576 27.7876 318.742 15.5805 313.43C3.37345 308.118 -7.65691 300.434 -16.8702 290.824C-17.5043 290.169 -18.132 289.492 -18.7455 288.823C-18.7734 288.795 -18.7941 288.767 -18.8152 288.746C-26.4915 280.374 -32.6997 270.767 -37.1781 260.328C-37.0804 260.439 -36.9759 260.544 -36.8782 260.656C-46.9996 236.985 -47.6861 210.339 -38.7969 186.179C-29.9078 162.018 -12.1162 142.172 10.9322 130.708C11.2807 130.533 11.6365 130.366 11.985 130.192C34.784 119.209 60.8768 117.194 85.0916 124.546C109.306 131.897 129.875 148.08 142.722 169.884C143.335 170.916 143.928 171.969 144.5 173.029C152.48 187.744 156.65 204.223 156.63 220.963Z" fill="#E5E5E5"/>
<path d="M143.059 264.301C216.037 264.301 275.197 205.135 275.197 132.151C275.197 59.1658 216.037 0 143.059 0C70.0816 0 10.9215 59.1658 10.9215 132.151C10.9215 205.135 70.0816 264.301 143.059 264.301Z" fill="#6C63FF"/>
<path opacity="0.2" d="M45.493 43.8843C16.8042 110.999 47.9493 188.666 115.058 217.357C140.518 228.243 168.755 230.855 195.78 224.824C222.806 218.794 247.254 204.426 265.673 183.749C236.988 250.865 159.33 282.018 92.2196 253.329C25.1094 224.641 -6.0398 146.975 22.6459 79.8583C28.2655 66.7099 35.9815 54.5606 45.493 43.8843Z" fill="black"/>
<path d="M150.209 500.297L136.713 496.511L136.74 495.061L140.784 275.241L140.986 264.281L140.993 263.96L141.697 225.558L142.722 169.891V169.885L143.419 132.151H143.789L144.5 173.029L145.427 226.234L146.089 263.988V264.267L146.117 265.822V265.829L147.4 339.42L147.532 346.734L150.182 498.833L150.209 500.297Z" fill="#3F3D56"/>
<path d="M164.438 330.448L142.595 341.949L145.639 347.731L167.482 336.23L164.438 330.448Z" fill="#3F3D56"/>
<path d="M140.47 526.9H78.1648V528.295H140.47V526.9Z" fill="#CBCBCB"/>
<path d="M254.803 550.606H192.498V552H254.803V550.606Z" fill="#CBCBCB"/>
<path d="M432.577 532.478H370.271V533.872H432.577V532.478Z" fill="#CBCBCB"/>
<path d="M405.095 475.734L375.219 448.304C375.219 448.304 407.088 456.106 405.095 475.734Z" fill="#F1F1F1"/>
<path d="M95.2807 485.502V444.942C95.2807 444.942 111.086 473.697 95.2807 485.502Z" fill="#F1F1F1"/>
<path d="M96.257 485.495L66.3812 458.065C66.3812 458.065 98.2503 465.867 96.257 485.495Z" fill="#F1F1F1"/>
<path d="M202.642 514.785V464.348C202.642 464.348 222.296 500.106 202.642 514.785Z" fill="#F1F1F1"/>
<path d="M203.856 514.776L166.705 480.667C166.705 480.667 206.335 490.369 203.856 514.776Z" fill="#F1F1F1"/>
<path d="M522 508.615L521.617 509.96L404.614 476.633L316.473 496.065L203.751 515.322L203.597 515.28L150.209 500.297L136.713 496.511L95.49 484.937L61.1065 492.6L51.0535 494.838L29.1978 499.711L28.8981 498.352L51.0745 493.408L61.0856 491.177L95.5318 483.501L95.6991 483.543L136.74 495.061L150.182 498.833L203.82 513.893L316.201 494.698L404.656 475.197L404.83 475.239L522 508.615Z" fill="#CBCBCB"/>
<path d="M312.674 84.6681L321.594 77.5332C314.665 76.7686 311.818 80.5482 310.652 83.5398C305.239 81.2916 299.345 84.2379 299.345 84.2379L317.193 90.7177C316.292 88.3126 314.725 86.2141 312.674 84.6681Z" fill="#3F3D56"/>
<path d="M293.154 217.837L302.074 210.702C295.145 209.938 292.297 213.717 291.132 216.709C285.719 214.461 279.825 217.407 279.825 217.407L297.672 223.887C296.772 221.482 295.205 219.383 293.154 217.837Z" fill="#3F3D56"/>
<path d="M232.575 524.712L239.393 527.245L252.406 502.152L242.344 498.414L232.575 524.712Z" fill="#FFB7B7"/>
<path d="M231.663 521.839L245.089 526.828C247.358 527.671 249.2 529.382 250.208 531.583C251.216 533.784 251.309 536.295 250.466 538.565L250.363 538.843L228.381 530.675L231.663 521.839Z" fill="#2F2E41"/>
<path d="M299.666 531.792L306.939 531.792L310.399 503.737L299.665 503.737L299.666 531.792Z" fill="#FFB7B7"/>
<path d="M298.404 529.417L312.727 529.417C315.147 529.417 317.47 530.379 319.181 532.09C320.893 533.802 321.855 536.124 321.855 538.545V538.842L298.404 538.843L298.404 529.417Z" fill="#2F2E41"/>
<path d="M266.369 337.22L268.742 332.473L288.911 342.559L288.318 346.712L292.174 351.755C292.174 351.755 298.699 355.315 297.513 367.18L296.327 378.453L294.843 392.988L305.225 428.881L310.564 476.344L314.42 514.61L295.733 513.72L278.53 451.426L248.276 518.466L227.513 513.127L255.988 446.68L259.547 418.795C259.547 418.795 257.174 403.964 268.445 393.878L266.665 388.538V381.959L260.733 350.568L266.369 337.22Z" fill="#2F2E41"/>
<path opacity="0.2" d="M265.815 405.056L265.144 405.245L278.194 451.52L278.865 451.331L265.815 405.056Z" fill="black"/>
<path d="M266.962 395.954H296.03V392.988H266.962V395.954Z" fill="#3F3D56"/>
<path d="M296.03 397.734C296.685 397.734 297.216 396.406 297.216 394.768C297.216 393.129 296.685 391.801 296.03 391.801C295.375 391.801 294.844 393.129 294.844 394.768C294.844 396.406 295.375 397.734 296.03 397.734Z" fill="#3F3D56"/>
<path d="M296.796 323.256C300.985 315.592 298.169 305.984 290.506 301.794C282.843 297.605 273.236 300.422 269.047 308.085C264.858 315.749 267.674 325.357 275.337 329.547C283 333.736 292.607 330.92 296.796 323.256Z" fill="#FFB7B7"/>
<path d="M258.724 310.025C266.45 310.025 272.713 303.762 272.713 296.035C272.713 288.308 266.45 282.045 258.724 282.045C250.999 282.045 244.736 288.308 244.736 296.035C244.736 303.762 250.999 310.025 258.724 310.025Z" fill="#2F2E41"/>
<path d="M240.972 294.536C240.421 296.39 240.259 298.338 240.498 300.257C240.737 302.177 241.371 304.025 242.361 305.687C243.35 307.349 244.674 308.787 246.247 309.912C247.821 311.036 249.61 311.822 251.502 312.22C253.395 312.618 255.349 312.619 257.242 312.223C259.135 311.828 260.926 311.044 262.5 309.921C264.075 308.799 265.4 307.362 266.392 305.701C267.383 304.041 268.02 302.193 268.261 300.274C267.259 303.639 265.028 306.505 262.01 308.302C258.993 310.098 255.411 310.695 251.975 309.972C248.539 309.25 245.5 307.261 243.462 304.402C241.423 301.542 240.535 298.021 240.972 294.536Z" fill="#2F2E41"/>
<path d="M296.237 311.28C296.647 314.896 295.854 318.547 293.979 321.667C292.104 324.786 289.253 327.2 285.868 328.535C282.482 329.869 278.751 330.05 275.252 329.049C271.753 328.047 268.683 325.92 266.516 322.996C264.349 320.072 263.206 316.515 263.266 312.876C263.325 309.237 264.583 305.719 266.844 302.867C269.106 300.016 272.244 297.99 275.774 297.103C279.304 296.217 283.027 296.519 286.367 297.963C289.13 295.735 292.555 296.426 295.339 298.777C298.488 301.436 299.422 303.263 301.865 307.635C299.463 307.973 298.638 310.943 296.237 311.28Z" fill="#2F2E41"/>
<path d="M238.112 358.838C238.289 363.525 238.64 372.75 238.64 373.22C238.64 373.717 245.633 388.197 248.654 394.429V394.432C248.869 394.871 249.062 395.27 249.232 395.62C249.466 396.104 249.833 396.51 250.291 396.792C250.748 397.073 251.277 397.217 251.814 397.207L265.016 396.97C265.742 396.957 266.435 396.665 266.95 396.154C267.465 395.643 267.763 394.952 267.781 394.227L269.254 336.138C269.259 335.946 269.225 335.756 269.155 335.577C269.085 335.399 268.98 335.236 268.847 335.099C268.713 334.962 268.553 334.853 268.377 334.778C268.2 334.704 268.011 334.665 267.819 334.665H250.793C250.074 334.666 249.37 334.869 248.76 335.251C248.151 335.633 247.662 336.179 247.349 336.827L239.177 353.734C238.411 355.323 238.046 357.075 238.112 358.838Z" fill="#6C63FF"/>
<path d="M268.011 390.241C271.399 388.187 274.443 385.614 277.032 382.616C283.047 375.85 286.706 367.314 287.458 358.291C288.129 350.571 286.597 344.833 282.905 341.236C278.212 336.662 271.825 337.327 271.555 337.358L271.269 337.39L266.941 341.052L268.166 342.5L272.038 339.223C273.224 339.163 278.063 339.151 281.598 342.609C284.851 345.792 286.187 351.013 285.569 358.127C284.853 366.718 281.379 374.847 275.664 381.301C273.199 384.153 270.309 386.608 267.096 388.58L268.011 390.241Z" fill="#6C63FF"/>
<path d="M243.443 368.172L243.316 368.791L266.384 373.529L266.511 372.91L243.443 368.172Z" fill="#3F3D56"/>
<path d="M258.648 334.652L257.149 371.362L257.781 371.387L259.279 334.678L258.648 334.652Z" fill="#3F3D56"/>
<path d="M238.112 358.838C238.289 363.525 238.64 372.75 238.64 373.22C238.64 373.717 245.633 388.197 248.654 394.429L243.023 361.73C242.805 360.472 242.257 359.294 241.435 358.317C240.613 357.341 239.546 356.6 238.343 356.171C238.154 357.047 238.076 357.943 238.112 358.838Z" fill="#3F3D56"/>
<path d="M272.709 427.367C272.211 426.724 271.859 425.98 271.679 425.187C271.499 424.394 271.495 423.571 271.668 422.776C271.84 421.981 272.185 421.234 272.677 420.587C273.17 419.94 273.798 419.408 274.518 419.03L273.374 406.369L280.898 403.797L282.263 421.7C282.817 422.952 282.894 424.363 282.477 425.668C282.061 426.972 281.18 428.078 280.003 428.777C278.825 429.475 277.432 429.718 276.088 429.458C274.744 429.198 273.541 428.454 272.709 427.367Z" fill="#FFB7B7"/>
<path d="M267.785 350.951C267.638 349.029 268.135 347.112 269.198 345.503C270.261 343.895 271.83 342.686 273.656 342.067C275.266 341.535 277.005 341.537 278.614 342.072C280.337 342.659 281.831 343.772 282.886 345.254C283.941 346.737 284.503 348.513 284.494 350.333L285.058 414.632L271.726 415.115L267.785 350.951Z" fill="#CBCBCB"/>
</g>
<defs>
<clipPath id="clip0_43_21">
<rect width="567" height="552" fill="white" transform="translate(-45)"/>
</clipPath>
</defs>
</svg>
